<svg width="123" height="76" viewBox="0 0 123 76" fill="none" xmlns="http://www.w3.org/2000/svg">
<path id="SPLITTER" fill-rule="evenodd" clip-rule="evenodd" d="M13.1482 24.2866C12.0809 24.6272 10.8773 24.7976 9.53752 24.7976C7.97064 24.7976 6.59111 24.5762 5.39892 24.1333C4.20673 23.6905 3.21324 23.0774 2.41844 22.294C1.62365 21.5105 1.02188 20.5908 0.613127 19.5349C0.204376 18.479 0 17.3265 0 16.0775V15.0557H4.49626V15.8732C4.49626 17.3038 4.91069 18.4449 5.73955 19.2965C6.5684 20.148 7.8571 20.5738 9.60565 20.5738C10.9682 20.5738 11.9787 20.2786 12.6372 19.6882C13.2958 19.0978 13.625 18.3938 13.625 17.5763C13.625 17.1903 13.5569 16.8212 13.4207 16.4693C13.2844 16.1173 13.046 15.7994 12.7053 15.5155C12.3647 15.2317 11.8992 14.9762 11.3088 14.7491C10.7184 14.522 9.96898 14.329 9.06065 14.17C7.8571 13.9657 6.75575 13.6988 5.75658 13.3696C4.75741 13.0403 3.88881 12.6032 3.15079 12.0582C2.41277 11.5132 1.83938 10.8319 1.43063 10.0144C1.02188 9.1969 0.817502 8.19773 0.817502 7.01689V6.81252C0.817502 5.83606 1.0162 4.9334 1.4136 4.10454C1.81099 3.27569 2.36735 2.55469 3.08266 1.94157C3.79798 1.32844 4.6609 0.851565 5.67142 0.510939C6.68194 0.170313 7.81169 0 9.06065 0C10.4686 0 11.7175 0.198698 12.8075 0.596095C13.8975 0.993492 14.8115 1.53282 15.5496 2.21407C16.2876 2.89532 16.8439 3.67876 17.2186 4.56439C17.5933 5.45001 17.7807 6.38106 17.7807 7.35752V8.58377H13.2844V7.76627C13.2844 6.81252 12.9154 5.98366 12.1774 5.2797C11.4394 4.57574 10.4004 4.22376 9.06065 4.22376C7.92523 4.22376 7.02825 4.45652 6.3697 4.92204C5.71116 5.38757 5.38189 6.01772 5.38189 6.81252C5.38189 7.22127 5.46137 7.59028 5.62033 7.91955C5.77929 8.24882 6.05746 8.54403 6.45486 8.80518C6.85226 9.06633 7.37455 9.29909 8.02174 9.50346C8.66893 9.70784 9.49211 9.90086 10.4913 10.0825C12.9892 10.5367 14.8967 11.2974 16.2138 12.3647C17.5309 13.432 18.1894 15.0102 18.1894 17.0994V17.5082C18.1894 18.6209 17.9907 19.6257 17.5933 20.5227C17.1959 21.4197 16.6225 22.1861 15.8732 22.8219C15.1238 23.4578 14.2155 23.946 13.1482 24.2866ZM40.7616 15.3282V24.3207H36.2653V0.476874H45.5984C46.8247 0.476874 47.892 0.675573 48.8003 1.07297C49.7087 1.47037 50.4637 1.99266 51.0655 2.63985C51.6673 3.28704 52.1214 4.02506 52.428 4.85392C52.7346 5.68277 52.8878 6.52866 52.8878 7.39158V8.20908C52.8878 9.09471 52.7346 9.9633 52.428 10.8149C52.1214 11.6664 51.6673 12.4272 51.0655 13.0971C50.4637 13.767 49.7087 14.3063 48.8003 14.715C47.892 15.1238 46.8247 15.3282 45.5984 15.3282H40.7616ZM45.1556 11.0363H40.7615V4.76874H45.1556C46.1548 4.76874 46.9439 5.04124 47.5229 5.58624C48.102 6.13124 48.3915 6.8352 48.3915 7.69812V8.10687C48.3915 8.96979 48.102 9.67375 47.5229 10.2188C46.9439 10.7638 46.1548 11.0363 45.1556 11.0363ZM86.9731 20.0288V24.3207H71.6449V0.476874H76.1412V20.0288H86.9731ZM122.285 24.3207V20.0288H116.562V4.76876H122.285V0.476874H106.343V4.76876H112.066V20.0288H106.343V24.3207H122.285ZM11.445 55.8626V75.4146H6.94878V55.8626H0.613136V51.5708H17.7807V55.8626H11.445ZM46.4841 75.4146V55.8626H52.8197V51.5708H35.6522V55.8626H41.9878V75.4146H46.4841ZM87.1094 71.1227V75.4146H71.6449V51.5708H86.7006V55.8626H76.1412V61.3127H86.2919V65.6045H76.1412V71.1227H87.1094ZM110.874 75.4146V66.422H116.051C116.71 66.422 117.181 66.5924 117.465 66.933C117.749 67.2736 117.891 67.7164 117.891 68.2614V75.4146H122.387V67.1714C122.387 66.3766 122.154 65.7181 121.689 65.1958C121.223 64.6735 120.593 64.3669 119.798 64.2761V63.663C120.888 63.2088 121.694 62.5559 122.217 61.7044C122.739 60.8528 123 59.9388 123 58.9623V58.1448C123 57.2365 122.835 56.3849 122.506 55.5901C122.177 54.7953 121.7 54.0971 121.076 53.4953C120.451 52.8935 119.673 52.4223 118.742 52.0817C117.811 51.7411 116.733 51.5708 115.506 51.5708H106.377V75.4146H110.874ZM110.874 62.1301H115.166C116.256 62.1301 117.084 61.8747 117.652 61.3637C118.22 60.8528 118.504 60.1318 118.504 59.2008V58.792C118.504 57.9972 118.22 57.3103 117.652 56.7312C117.084 56.1522 116.256 55.8626 115.166 55.8626H110.874V62.1301Z" fill="#F5CAA3"/>
</svg>
